<svg width="65" height="32" viewBox="0 0 65 32" fill="none" xmlns="http://www.w3.org/2000/svg">
<mask id="mask0_874_987" style="mask-type:alpha" maskUnits="userSpaceOnUse" x="20" y="4" width="25" height="24">
<rect x="20.6666" y="4" width="24" height="24" fill="#D9D9D9"/>
</mask>
<g mask="url(#mask0_874_987)">
<path d="M30.2918 25.5004L29.9162 22.5004C29.7002 22.4004 29.4502 22.2668 29.1662 22.0996C28.883 21.9332 28.633 21.7752 28.4162 21.6256L25.6418 22.8004L23.267 18.6748L25.6418 16.8748C25.625 16.7412 25.6126 16.5956 25.6046 16.438C25.5958 16.2796 25.5914 16.1336 25.5914 16C25.5914 15.8832 25.5958 15.7456 25.6046 15.5872C25.6126 15.4288 25.625 15.2748 25.6418 15.1252L23.267 13.3252L25.6418 9.22483L28.4162 10.3744C28.633 10.2248 28.879 10.0708 29.1542 9.91243C29.4294 9.75403 29.6834 9.61643 29.9162 9.49963L30.2918 6.49963H35.0414L35.417 9.49963C35.6666 9.63323 35.9166 9.77083 36.167 9.91243C36.4166 10.054 36.6582 10.208 36.8918 10.3744L39.6914 9.22483L42.0662 13.3252L39.6914 15.1504C39.7082 15.3 39.7166 15.4456 39.7166 15.5872V16C39.7166 16.1168 39.7126 16.25 39.7046 16.3996C39.6958 16.55 39.6914 16.7084 39.6914 16.8748L42.041 18.6748L39.6662 22.8004L36.8918 21.6256C36.6582 21.792 36.4122 21.95 36.1538 22.0996C35.8954 22.25 35.6498 22.3836 35.417 22.5004L35.0414 25.5004H30.2918ZM32.6162 19.0744C33.4666 19.0744 34.1918 18.7744 34.7918 18.1744C35.3918 17.5744 35.6918 16.8496 35.6918 16C35.6918 15.1504 35.3918 14.4256 34.7918 13.8256C34.1918 13.2256 33.4666 12.9256 32.6162 12.9256C31.7834 12.9256 31.0626 13.2256 30.4538 13.8256C29.8458 14.4256 29.5418 15.1504 29.5418 16C29.5418 16.8496 29.8458 17.5744 30.4538 18.1744C31.0626 18.7744 31.7834 19.0744 32.6162 19.0744ZM32.6162 17.4748C32.2162 17.4748 31.8706 17.3292 31.5794 17.038C31.2874 16.746 31.1414 16.4 31.1414 16C31.1414 15.6 31.2874 15.254 31.5794 14.962C31.8706 14.6708 32.2162 14.5252 32.6162 14.5252C33.0162 14.5252 33.3622 14.6708 33.6542 14.962C33.9462 15.254 34.0922 15.6 34.0922 16C34.0922 16.4 33.9462 16.746 33.6542 17.038C33.3622 17.3292 33.0162 17.4748 32.6162 17.4748ZM31.667 23.8996H33.6662L33.9662 21.2752C34.4502 21.1416 34.9046 20.9456 35.3294 20.6872C35.7542 20.4288 36.1666 20.108 36.5666 19.7248L38.9918 20.7748L40.0166 19.1248L37.8662 17.5C37.9502 17.2336 38.0046 16.9796 38.0294 16.738C38.0542 16.4956 38.0666 16.2496 38.0666 16C38.0666 15.7664 38.0542 15.5372 38.0294 15.3124C38.0046 15.0876 37.9586 14.8336 37.8914 14.5504L40.0418 12.8752L39.041 11.2252L36.5666 12.2752C36.2162 11.9248 35.8078 11.6124 35.3414 11.338C34.875 11.0628 34.425 10.8668 33.9914 10.75L33.6662 8.10043H31.667L31.3418 10.75C30.8746 10.8668 30.4246 11.05 29.9918 11.2996C29.5582 11.55 29.1414 11.8668 28.7414 12.25L26.3162 11.2252L25.3166 12.8752L27.4166 14.5C27.3502 14.7664 27.3002 15.0248 27.2666 15.2752C27.233 15.5248 27.2162 15.7664 27.2162 16C27.2162 16.2336 27.233 16.4712 27.2666 16.7128C27.3002 16.9544 27.3502 17.2084 27.4166 17.4748L25.3166 19.1248L26.3162 20.7748L28.7414 19.75C29.1246 20.1164 29.533 20.4248 29.9666 20.6752C30.4002 20.9248 30.8586 21.1164 31.3418 21.25L31.667 23.8996Z" fill="#4C4646"/>
</g>
</svg>
